<svg width="137" height="86" xmlns="http://www.w3.org/2000/svg">
  <g fill-rule="nonzero" fill="none"><path d="M78.119 4.987A4.487 4.487 0 0073.632.499H5.414A4.487 4.487 0 00.927 4.987v49.084c0 2.479 4.597 4.487 4.597 4.487h3.768c2.244-5.335 7.518-9.081 13.668-9.081 6.15 0 11.425 3.746 13.669 9.081H77.29l.829-47.184c-.317-.108 0-6.387 0-6.387z" fill="#EA572B"/>
    <g fill="#3A1018"><path d="M113.631 38.829c-1.304 2.028-.006 5.905 1.313 8.801l.402.883 15.943 3.894V46.12c0-4.289-8.493-7.046-13.643-8.323-1.735-.628-3.225-.195-4.015 1.032zm13.658 7.398v1.085l-9.081-2.217c-.482-1.192-.867-2.422-1.039-3.291 4.83 1.256 9.51 3.293 10.12 4.423z"/><path d="M124.993 32.798c-1.422-.534-3.007-1.129-4.766-1.809l-6.812-14.231c-.998-2.263-2.507-5.682-6.319-5.682H86.163c-.881 0-1.721.178-2.487.498V9.867a6.494 6.494 0 00-6.488-6.487H8.971c-1.794 0-3.42.732-4.596 1.913a6.376 6.376 0 00-2.241 4.851v49.084c0 2.9 1.944 5.356 4.597 6.132v6.751h3.965c.932 7.148 7.042 12.786 14.418 12.924l.279.002c4.186 0 7.997-1.778 10.707-4.617a15.199 15.199 0 004.606-8.156l55.134-.148c.933 7.146 7.041 12.781 14.416 12.919l.094.001c.117.005.232.021.35.023l.285.002c7.542 0 13.879-5.658 14.948-12.951h10.258v-6.744l.437-.024.215-1.757c.03-.222.055-.444.055-.674V41.537c-.002-4.269-3.732-5.67-11.905-8.739zM36.42 68.506l-.007 1.91c-.003.164-.023.322-.033.484-.784 5.114-5.239 9.074-10.538 9.074l-.202-.002a10.603 10.603 0 01-7.49-3.267 10.597 10.597 0 01-2.985-7.606c.106-5.777 4.893-10.477 10.669-10.477l.203.002a10.606 10.606 0 017.49 3.266 10.595 10.595 0 012.955 6.614l-.062.002zM8.971 61.44a2.49 2.49 0 01-2.488-2.488V9.867a2.48 2.48 0 011.389-2.22c.209-.055.425-.093.65-.093H76.74c1.427 0 2.587 1.162 2.59 2.682.086 1.758.172 4.419.127 5.488a1.947 1.947 0 00-.062 1.36l.281.844V61.441H38.81a15.204 15.204 0 00-2.044-2.671 15.076 15.076 0 00-10.646-4.643l-.287-.003c-5.444 0-10.256 2.945-12.935 7.317H8.971v-.001zm31.539 4h56.043a14.99 14.99 0 00-.557 2.495h-55.05a14.883 14.883 0 00-.436-2.495zm81.046 4.976a10.913 10.913 0 01-.521 3.122c-1.671 3.917-5.565 6.687-10.05 6.687l-.207-.002c-4.731-.088-8.702-3.193-10.139-7.438a10.766 10.766 0 01-.383-3.049c.108-5.804 4.918-10.526 10.722-10.526l.202.002a10.653 10.653 0 017.524 3.282 10.632 10.632 0 012.87 5.817h-.023l.005 2.105zm3.86-4.976h4.139v2.495h-3.598a14.902 14.902 0 00-.541-2.495zM86.352 15.252h20.297c1.095 0 1.707.989 2.774 3.407l7.504 15.681.701.273c2.072.806 3.915 1.498 5.547 2.111 6.667 2.503 9.372 3.58 9.372 5.087l.001 19.628h-8.883a14.96 14.96 0 00-1.937-2.498 14.822 14.822 0 00-10.471-4.566l-.282-.003c-5.3 0-9.989 2.839-12.64 7.067H83.676V41.537c0-.189.033-.696.125-1.552l.037-.343-.08-.335a2.543 2.543 0 01-.082-.588V17.565c0-.461.135-.887.354-1.258.731-.541 1.641-1.055 2.322-1.055zM10.531 65.44h.651a14.94 14.94 0 00-.47 2.87h-.182v-2.87h.001z"/><path d="M107.531 17.842H84.787V36.41h30.467l-7.723-18.568zm-18.744 4h16.076l4.395 10.568H88.787V21.842zM86.787 37.272a1.907 1.907 0 00-1.907 1.907v19.254a1.907 1.907 0 003.814 0V39.18a1.907 1.907 0 00-1.907-1.908z"/></g>
  </g>
</svg>
