<svg xmlns="http://www.w3.org/2000/svg" width="141.732" height="141.732"><path fill="#ffffff" d="M132.792 116.985c-4.59-7.952-11.967-17.18-20.771-25.984-5.311-5.313-10.876-10.186-16.221-14.219a48.902 48.902 0 005.541-22.647c0-27.143-22.082-49.225-49.225-49.225S2.892 26.993 2.892 54.136s22.082 49.224 49.225 49.224a48.909 48.909 0 0024.69-6.667c3.961 5.191 8.697 10.576 13.822 15.7 15.336 15.337 31.275 25.642 39.662 25.643h.002c2.248 0 4.059-.67 5.381-1.992 3.415-3.415 2.445-9.828-2.882-19.059zM8.636 54.136c0-23.976 19.505-43.481 43.48-43.481s43.48 19.505 43.48 43.481a43.208 43.208 0 01-6.211 22.368c-.163.27-.335.534-.503.8a43.542 43.542 0 01-2.684 3.781c-.227.286-.45.574-.684.854-.254.304-.516.6-.777.896a41.839 41.839 0 01-1.57 1.696c-.253.258-.51.512-.769.763-.296.288-.593.576-.897.856-.235.216-.479.425-.719.637a43.726 43.726 0 01-3.987 3.119c-.154.107-.306.218-.462.323a43.231 43.231 0 01-24.218 7.387c-23.974 0-43.479-19.505-43.479-43.48zm122.976 77.846c-.194.194-.688.309-1.32.309-5.786 0-19.872-8.231-35.601-23.96-4.843-4.841-9.318-9.912-13.073-14.802a49.189 49.189 0 003.566-2.962l.038-.036a49.652 49.652 0 001.594-1.519l.203-.205a52.05 52.05 0 001.395-1.463c.07-.076.141-.152.21-.229.48-.532.95-1.073 1.407-1.625l.075-.089a49.345 49.345 0 002.747-3.649c4.976 3.796 10.149 8.351 15.104 13.309 8.46 8.459 15.513 17.264 19.858 24.793 4.757 8.243 4.324 11.602 3.797 12.128z"/></svg>