<svg width="139" height="129" xmlns="http://www.w3.org/2000/svg">
  <g fill-rule="nonzero" fill="none"><path d="M17.716 98.765h18.123V59.777c-14.378 0-24.165 11.68-24.165 26.06v6.887a6.04 6.04 0 006.042 6.041zM121.595 98.899H103.47V59.911c14.378 0 24.166 11.68 24.166 26.06v6.887a6.04 6.04 0 01-6.041 6.041z" fill="#EA572B"/><path d="M138.746 79.239c0-4.267-2.368-8.158-6.041-10.166v-7.959c0-4.681-3.808-8.49-8.488-8.49h-3.803c.29-6.564-.181-23.938-11.712-36.953C99.827 5.654 86.472.575 69.007.575c-16.781 0-29.858 5.198-38.873 15.449-10.883 12.377-12.732 28.902-12.521 36.6h-3.027c-4.682 0-8.489 3.809-8.489 8.49v7.959C2.424 71.081.056 74.972.056 79.239c0 4.263 2.368 8.154 6.041 10.164v7.961c0 4.681 3.808 8.489 8.489 8.489h20.572V52.625h-12.64c-.177-6.369 1.242-21.938 11.292-33.367C41.855 10.11 53.697 5.472 69.007 5.472c15.986 0 28.1 4.514 36.005 13.418 10.414 11.728 10.729 28.058 10.485 33.734h-11.852V105.852h9.736c-.054 1.056-.381 2.511-1.495 4.065-2.378 3.32-9.772 8.77-32.603 9.319v-2.869a3.373 3.373 0 00-3.368-3.369H56.747a3.371 3.371 0 00-3.366 3.369v8.892a3.372 3.372 0 003.366 3.369h19.169a3.372 3.372 0 003.368-3.369v-1.122c19.188-.439 31.488-4.257 36.582-11.369 1.829-2.553 2.348-5.042 2.399-6.917h5.951c4.681 0 8.488-3.808 8.488-8.489v-7.961c3.674-2.007 6.042-5.899 6.042-10.162zm-133.796 0a6.67 6.67 0 011.146-3.731v7.46a6.664 6.664 0 01-1.146-3.729zm6.042 18.125v-36.25a3.597 3.597 0 013.594-3.593h3.634v43.436h-3.634a3.598 3.598 0 01-3.594-3.593zm19.271-32.948v36.541h-7.148V57.521h7.148v6.895zm44.127 59.316H58.276v-5.837H74.39v5.837zm34.15-59.316v-6.895h7.148v43.436h-7.148V64.416zm19.27 32.948a3.597 3.597 0 01-3.593 3.593h-3.634V57.521h3.634a3.597 3.597 0 013.593 3.593v36.25zm4.895-14.395v-7.461a6.664 6.664 0 011.147 3.731 6.647 6.647 0 01-1.147 3.73z" fill="#3A1018"/></g>
</svg>
