<svg xmlns="http://www.w3.org/2000/svg" width="141.732" height="141.732"><path fill="#3A1018" d="M69.768 136.451h-.369c-21.205 0-42.831-4.17-59.336-11.439l-.628-.365-1.57-1.023 1.138-6.273c.158-.808.272-2.479.405-4.414.702-10.25 2.009-29.329 14.761-29.329 5.353 0 20.483-5.528 25.531-7.578v-5.011c-3.369-3.485-6.44-7.457-6.44-13.287v-.215c-3.669-1.52-6.161-5.984-6.99-12.729-.618-5.051.07-8.742 2.045-10.973a6.563 6.563 0 012.483-1.758v-1.391c0-18.18 10.445-28.606 28.655-28.606s28.653 10.418 28.653 28.58v1.39a6.568 6.568 0 012.486 1.759c1.975 2.231 2.664 5.923 2.047 10.973-.828 6.731-3.32 11.194-6.993 12.722v.222c0 6.693-3.929 10.888-8.665 15.512v2.708c5.557 2.026 22.669 7.683 28.107 7.683 12.881 0 13.813 16.523 14.313 25.4.099 1.75.192 3.402.349 4.187l.051.394.575 10.122-1.791.789c-17.236 7.593-38.675 11.95-58.817 11.95zm-55.625-15.829c15.572 6.486 35.576 10.188 55.256 10.188l.192-.001.175.001c18.694 0 38.525-3.889 54.752-10.704l-.341-6.018c-.206-1.161-.296-2.765-.409-4.763-.547-9.714-1.715-20.076-8.68-20.076-3.369 0-9.779-1.467-19.054-4.359a290.21 290.21 0 01-9.003-2.973c-4.823-1.685-5.692-1.988-5.692-4.074v-7.011l.854-.83c5.133-4.987 7.811-7.8 7.811-12.298v-5.192l2.73-.088c2.429-.078 3.836-4.547 4.304-8.35.458-3.749-.046-5.841-.671-6.547-.107-.122-.333-.376-1.082-.376h-2.82v-6.512c0-10.464-3.993-22.938-23.013-22.938-15.271 0-23.014 7.727-23.014 22.964v6.512h-2.821c-.747 0-.972.254-1.079.376-.625.706-1.129 2.796-.67 6.547.469 3.809 1.874 8.283 4.289 8.349l2.743.075v5.206c0 3.781 1.976 6.482 5.619 10.144l.821.826v9.167c0 2.02-.896 2.367-5.202 4.04a223.695 223.695 0 01-8.14 2.974c-8.447 2.897-14.446 4.368-17.831 4.368-7.482 0-8.597 16.259-9.132 24.072-.157 2.298-.271 3.958-.489 5.074l-.403 2.227z"/></svg>