<svg xmlns="http://www.w3.org/2000/svg" width="141.732" height="141.732"><path fill="#3A1018" d="M121.716 33.571V12.883H90.927v20.688h-9.663V2.331H33.238v31.24h-7.957L22.7 22.714 5.979 15.476l-2.311 5.336 14.049 6.081 16.638 69.998c-3.826 3.982-11.446 12.965-8.949 19.063 1.275 3.114 4.574 4.693 9.804 4.693h2.189c-1.524 2.091-2.424 4.623-2.424 7.354 0 7.135 6.102 12.939 13.602 12.939 7.502 0 13.605-5.805 13.605-12.939 0-2.73-.899-5.263-2.425-7.354h44.876c-1.524 2.091-2.424 4.623-2.424 7.354 0 7.135 6.103 12.939 13.604 12.939s13.604-5.805 13.604-12.939c0-2.73-.899-5.263-2.424-7.354h1.731v-5.814H35.21c-3.147 0-4.27-.708-4.423-1.082-.756-1.842 2.984-7.892 7.984-13.057h92.265l2.965-20.144 6.224-46.979h-18.509zM48.577 135.125c-4.294 0-7.787-3.196-7.787-7.125s3.493-7.125 7.787-7.125c4.296 0 7.791 3.196 7.791 7.125s-3.495 7.125-7.791 7.125zm67.236 0c-4.295 0-7.789-3.196-7.789-7.125s3.494-7.125 7.789-7.125 7.789 3.196 7.789 7.125-3.494 7.125-7.789 7.125zM96.741 18.697h19.16v14.874h-19.16V18.697zM39.053 8.146h36.396v25.426H39.053V8.146zm89.19 71.599l-2.229 15.134H39.853l-13.19-55.493h106.926l-5.346 40.359z"/></svg>