<svg xmlns="http://www.w3.org/2000/svg" width="141.732" height="141.732"><path fill="#EA572B" d="M109.285 14.71c-16.282 0-29.64 13.159-31.039 29.934v89.907s54.256-65.104 54.355-65.22l.375-.45s7.475-8.289 7.475-21.33c0-18.137-13.953-32.841-31.166-32.841z"/><path fill="#3A1018" d="M67.355 139.193L10.344 70.785c-.327-.391-8.163-9.887-8.163-23.233 0-19.747 15.314-35.813 34.138-35.813 13.547 0 25.538 8.556 30.999 20.886 5.374-12.457 17.261-20.886 31.077-20.886 18.823 0 34.138 16.065 34.138 35.813 0 13.628-7.463 22.442-8.191 23.269l-.346.415-54.356 65.219-2.285 2.738zM36.318 17.682c-15.546 0-28.194 13.399-28.194 29.869 0 11.123 6.717 19.345 6.785 19.427l52.446 62.931c12.632-15.155 51.994-62.385 52.088-62.496l.438-.521c.06-.068 6.708-7.683 6.708-19.341 0-16.47-12.648-29.869-28.194-29.869-14.473 0-26.806 11.951-28.077 27.209l-5.924-.001c-1.269-15.257-13.601-27.208-28.076-27.208z"/></svg>