<svg width="133" height="141" xmlns="http://www.w3.org/2000/svg">
  <g fill-rule="nonzero" fill="none"><path d="M19.279 84.415v15.35s2.914 1.328 3.408 2.488c.499 1.159 1.704 3.976 1.704 3.976l5.824 7.816 1-23.222h-1.048l74.562-46.877-10.858-6.181-74.592 46.65z" fill="#EA572B"/>
    <g fill="#3A1018"><path d="M59.594 105.687l63.713-39.79 2.088 3.344-63.713 39.79zM121.731 72.873L85.646 95.408c-2.35 1.467-4.122 4.663-4.122 7.433v7.237c0 2.907 1.904 4.231 3.674 4.231.839 0 1.692-.268 2.536-.798l36.072-22.642c2.345-1.471 4.115-4.667 4.119-7.435l.011-7.116c.002-1.681-.642-2.679-1.182-3.22-1.233-1.233-3.224-1.349-5.023-.225zm2.25 10.556c-.002 1.401-1.085 3.356-2.271 4.102l-36.072 22.642c-.06.038-.114.068-.163.093a2.072 2.072 0 01-.008-.188v-7.237c0-1.399 1.08-3.348 2.267-4.089l36.086-22.535c.061-.038.116-.068.165-.093.005.055.009.119.008.19l-.012 7.115z"/><path d="M105.484 42.348L77.13 28.142.47 68.838l.266.5-.401-.236v12.206l-.042 27.145.057.031-.001.538 54.524 31.083 77.221-48.473.036-36.48-26.646-12.804zM26.797 97.541l5.679 3.237v6.121l-.947-1.536-1.591-3.718c-.506-1.183-1.914-2.173-3.141-2.849v-1.255zm0-4.538v-3.746l5.679 3.343v3.64l-5.679-3.237zm76.163-47.301l-67.8 43.44-2.288-1.398 68.712-42.84 1.376.798zm-48.114 55.47L38.9 91.428l68.344-43.789 16.631 8.332-69.029 45.201zm43.537-57.671L30.765 86.525l-2.198-1.413 67.638-42.659 2.178 1.048zm-94.05 32.53l18.521 10.904v3.819L6.809 81.607l-1.953 3.425 17.998 10.261v5.986l1.153.526c.948.433 2.058 1.13 2.338 1.467l1.616 3.777 8.458 13.741v-17.763l14.056 8.013 1.953-3.425-16.009-9.126v-3.566l16.489 9.708-.065 28.292L4.296 106.16l.037-30.129zm123.795-12.055l-.037 24.888-71.306 44.762.065-29.055 71.333-46.709-.006 6.113h-.049v.001zM76.645 32.862l15.538 7.467-67.37 42.489-19.65-12.007 71.482-37.949z"/></g><path d="M73.561.024c-17.527 0-33.383 11.079-39.564 27.279l-5.031-3.248 4.239 18.296 10.146-15.805-5.308 1.244C43.888 13.599 57.996 3.966 73.561 3.966c21.166 0 38.385 17.22 38.385 38.385a1.971 1.971 0 003.944 0C115.889 19.012 96.9.024 73.561.024z" fill="#3A1018"/></g>
</svg>
