<svg xmlns="http://www.w3.org/2000/svg" viewBox="0 0 548.31 201.09"><defs><style>.cls-1{fill:#162a3c;}.cls-2{fill:#f4c803;}</style></defs><g id="Layer_2" data-name="Layer 2"><g id="Layer_1-2" data-name="Layer 1"><path class="cls-1" d="M165.09,59.66,86.58,114.42a10.22,10.22,0,0,0-4.39,8.41l.11,73.45a4.8,4.8,0,0,1-7.53,3.95L3.21,150.65A7.45,7.45,0,0,1,0,144.53v-77A12.57,12.57,0,0,1,5.38,57.18L84.94,1.7a9.44,9.44,0,0,1,10.77,0l69.35,47.86A6.16,6.16,0,0,1,165.09,59.66Z"/><path class="cls-2" d="M176.15,78.46v61.42a10,10,0,0,1-4.33,8.25l-68.18,47a4.58,4.58,0,0,1-7.18-3.77V130a10,10,0,0,1,4.33-8.25l68.18-47A4.58,4.58,0,0,1,176.15,78.46Z"/><path class="cls-1" d="M224.82,47.22a327.26,327.26,0,0,1,35.06-2.12c4.82,0,8.67,1.45,11.58,4.35s4.36,6.77,4.36,11.58v41.44H259.35l-1.06-5.31A38.26,38.26,0,0,1,248,102a32.81,32.81,0,0,1-8.87,1.54h-3.72q-7.22,0-11.58-4.36t-4.35-11.58V82.81q0-7.22,4.35-11.58t11.58-4.35h21.78V62.63A3.59,3.59,0,0,0,256.16,60a3.63,3.63,0,0,0-2.66-1.06q-6.9,0-15.24.64t-13.44,1Zm19.65,41.44a45,45,0,0,0,12.75-2.13V80.16h-15.4a3.62,3.62,0,0,0-3.72,3.72v1.06a3.57,3.57,0,0,0,1.06,2.65,3.62,3.62,0,0,0,2.66,1.07Z"/><path class="cls-1" d="M322,101.41A91.46,91.46,0,0,1,304,103.53h-3.72q-7.23,0-11.58-4.36t-4.36-11.58V63.16q0-8,4.52-12.48t12.48-4.52h39.31v74.37H322ZM309.28,89.19A74.6,74.6,0,0,0,322,88.13V60.5H307.15q-4.25,0-4.25,4.25V85.47a3.64,3.64,0,0,0,3.72,3.72Z"/><path class="cls-1" d="M383.64,61.56a33.76,33.76,0,0,0-13.81,3.19v37.72H351.24V46.16h16.47l1.06,6.91q9.14-8,19.12-8h4.78V61.56Z"/><path class="cls-1" d="M398.51,47.22a327.41,327.41,0,0,1,35.06-2.12q7.23,0,11.58,4.35T449.51,61v41.44H433L432,97.16A38.2,38.2,0,0,1,421.73,102a32.93,32.93,0,0,1-8.87,1.54h-3.72q-7.23,0-11.58-4.36T393.2,87.59V82.81q0-7.22,4.36-11.58t11.58-4.35h21.78V62.63a3.62,3.62,0,0,0-3.72-3.72q-6.92,0-15.24.64c-5.57.42-10,.74-13.45,1Zm19.66,41.44a45.08,45.08,0,0,0,12.75-2.13V80.16H415.51a3.64,3.64,0,0,0-3.72,3.72v1.06a3.66,3.66,0,0,0,3.72,3.72Z"/><path class="cls-1" d="M477.66,47.22a91.37,91.37,0,0,1,18.06-2.12h3.72c4.81,0,8.68,1.45,11.58,4.35s4.35,6.77,4.35,11.58V85.47q0,8-4.51,12.48t-12.48,4.52H459.07V28.1h18.59Zm19.12,15.94a3.62,3.62,0,0,0-3.72-3.72h-2.65a58.83,58.83,0,0,0-7.7.43c-2.16.28-3.85.49-5,.63V88.13h14.87c2.84,0,4.25-1.42,4.25-4.25Z"/><path class="cls-1" d="M548.31,48.29v54.18H529.72V62.63h-8V48.29ZM529.72,27h18.59V41.91H529.72Z"/><path class="cls-2" d="M250.28,127.09l-6.89,18.42h-3.2l-5.31-14-5.39,14h-3.2l-6.84-18.42h3.16L228,141.76l5.56-14.67h2.82l5.45,14.74,5.49-14.74Z"/><path class="cls-2" d="M269.27,129a8,8,0,0,1,2.07,6v10.6H268V135.3a5.67,5.67,0,0,0-1.29-4,4.83,4.83,0,0,0-3.68-1.35,5.74,5.74,0,0,0-4.28,1.58,6.19,6.19,0,0,0-1.56,4.54v9.48h-3.34V119.72h3.34v10a6.9,6.9,0,0,1,2.73-2,9.32,9.32,0,0,1,3.77-.73A7.64,7.64,0,0,1,269.27,129Z"/><path class="cls-2" d="M280.79,144.51a8.84,8.84,0,0,1-3.42-3.36,10.09,10.09,0,0,1,0-9.69,8.65,8.65,0,0,1,3.42-3.34,10.71,10.71,0,0,1,9.85,0,8.69,8.69,0,0,1,3.41,3.34,10.16,10.16,0,0,1,0,9.69,8.88,8.88,0,0,1-3.41,3.36,10.63,10.63,0,0,1-9.85,0Zm8.12-2.53a5.71,5.71,0,0,0,2.2-2.29,7.56,7.56,0,0,0,0-6.77,5.62,5.62,0,0,0-2.2-2.28,6.38,6.38,0,0,0-3.19-.8,6.3,6.3,0,0,0-3.17.8,5.69,5.69,0,0,0-2.23,2.28,7.4,7.4,0,0,0,0,6.77,5.78,5.78,0,0,0,2.23,2.29,6.11,6.11,0,0,0,3.17.82A6.19,6.19,0,0,0,288.91,142Z"/><path class="cls-2" d="M300.11,119.72h3.34v25.79h-3.34Z"/><path class="cls-2" d="M326.6,137.41h-15a5.83,5.83,0,0,0,2.14,3.92,7,7,0,0,0,4.54,1.47,6.82,6.82,0,0,0,5.31-2.22l1.85,2.15a8.09,8.09,0,0,1-3.12,2.23,10.77,10.77,0,0,1-4.15.76,10.91,10.91,0,0,1-5.18-1.2,8.6,8.6,0,0,1-3.49-3.35,9.66,9.66,0,0,1-1.23-4.87,9.78,9.78,0,0,1,1.2-4.83,8.51,8.51,0,0,1,3.3-3.35,9.38,9.38,0,0,1,4.74-1.2,9.22,9.22,0,0,1,4.71,1.2,8.4,8.4,0,0,1,3.23,3.35,10.19,10.19,0,0,1,1.17,4.94C326.67,136.66,326.64,137,326.6,137.41Zm-13.05-6.22a5.92,5.92,0,0,0-1.9,3.83h11.82a5.93,5.93,0,0,0-1.89-3.81,6.22,6.22,0,0,0-8,0Z"/><path class="cls-2" d="M332.44,145.11a9.58,9.58,0,0,1-3.27-1.54l1.39-2.64a10.22,10.22,0,0,0,2.95,1.39,12.45,12.45,0,0,0,3.52.52q4.37,0,4.37-2.51a1.62,1.62,0,0,0-.59-1.32,3.74,3.74,0,0,0-1.47-.71c-.6-.15-1.44-.32-2.53-.5a24.72,24.72,0,0,1-3.63-.8,5.53,5.53,0,0,1-2.41-1.53,4.27,4.27,0,0,1-1-3,4.74,4.74,0,0,1,2.09-4,9.31,9.31,0,0,1,5.59-1.51,15.52,15.52,0,0,1,3.69.45,10,10,0,0,1,3,1.22l-1.43,2.64a9.59,9.59,0,0,0-5.31-1.46,6.22,6.22,0,0,0-3.24.69,2.11,2.11,0,0,0-1.11,1.85,1.75,1.75,0,0,0,.63,1.42,4.06,4.06,0,0,0,1.54.77c.62.16,1.48.34,2.59.55a28.41,28.41,0,0,1,3.6.82,5.33,5.33,0,0,1,2.35,1.48,4.13,4.13,0,0,1,1,2.92,4.61,4.61,0,0,1-2.14,4,10.11,10.11,0,0,1-5.82,1.47A15.22,15.22,0,0,1,332.44,145.11Z"/><path class="cls-2" d="M361.68,128.8a7.22,7.22,0,0,1,2,5.59v11.12h-3.17v-2.43a5.16,5.16,0,0,1-2.38,2,8.92,8.92,0,0,1-3.66.68,7.68,7.68,0,0,1-5-1.49,5.13,5.13,0,0,1-.08-7.84c1.18-1,3.06-1.48,5.63-1.48h5.28v-.66a4.28,4.28,0,0,0-1.25-3.3,5.3,5.3,0,0,0-3.68-1.15,9.73,9.73,0,0,0-3.2.54,8.12,8.12,0,0,0-2.64,1.44l-1.39-2.5a10,10,0,0,1,3.4-1.75,14.1,14.1,0,0,1,4.21-.61A8.26,8.26,0,0,1,361.68,128.8Zm-3.31,13.5a4.9,4.9,0,0,0,2-2.42v-2.57h-5.14q-4.25,0-4.24,2.85a2.59,2.59,0,0,0,1.07,2.19,5,5,0,0,0,3,.8A6.2,6.2,0,0,0,358.37,142.3Z"/><path class="cls-2" d="M370.11,119.72h3.34v25.79h-3.34Z"/><path class="cls-2" d="M396.6,137.41h-15a5.8,5.8,0,0,0,2.14,3.92,7,7,0,0,0,4.53,1.47,6.83,6.83,0,0,0,5.32-2.22l1.84,2.15a8,8,0,0,1-3.11,2.23,11.75,11.75,0,0,1-9.33-.44,8.54,8.54,0,0,1-3.49-3.35,9.66,9.66,0,0,1-1.24-4.87,9.78,9.78,0,0,1,1.2-4.83,8.6,8.6,0,0,1,3.31-3.35,9.38,9.38,0,0,1,4.74-1.2,9.22,9.22,0,0,1,4.71,1.2,8.4,8.4,0,0,1,3.23,3.35,10.19,10.19,0,0,1,1.17,4.94C396.67,136.66,396.64,137,396.6,137.41Zm-13.05-6.22a5.92,5.92,0,0,0-1.9,3.83h11.82a5.94,5.94,0,0,0-1.9-3.81,6.2,6.2,0,0,0-8,0Z"/><path class="cls-2" d="M428.43,119.72v25.79h-3.19v-2.92a7.24,7.24,0,0,1-2.82,2.33,8.66,8.66,0,0,1-3.76.8,9.64,9.64,0,0,1-4.79-1.18,8.48,8.48,0,0,1-3.32-3.32,10.65,10.65,0,0,1,0-9.82,8.56,8.56,0,0,1,3.32-3.3,9.64,9.64,0,0,1,4.79-1.18,8.84,8.84,0,0,1,3.66.75,7.1,7.1,0,0,1,2.78,2.2V119.72ZM422.11,142a5.63,5.63,0,0,0,2.22-2.29,7.56,7.56,0,0,0,0-6.77,5.54,5.54,0,0,0-2.22-2.28,6.7,6.7,0,0,0-6.35,0,5.67,5.67,0,0,0-2.22,2.28,7.4,7.4,0,0,0,0,6.77,5.76,5.76,0,0,0,2.22,2.29,6.56,6.56,0,0,0,6.35,0Z"/><path class="cls-2" d="M451.55,137.41H436.6a5.8,5.8,0,0,0,2.14,3.92,7,7,0,0,0,4.53,1.47,6.84,6.84,0,0,0,5.32-2.22l1.84,2.15a8,8,0,0,1-3.11,2.23,11.75,11.75,0,0,1-9.33-.44,8.54,8.54,0,0,1-3.49-3.35,9.66,9.66,0,0,1-1.24-4.87,9.78,9.78,0,0,1,1.2-4.83,8.64,8.64,0,0,1,3.3-3.35,9.45,9.45,0,0,1,4.75-1.2,9.22,9.22,0,0,1,4.71,1.2,8.47,8.47,0,0,1,3.23,3.35,10.18,10.18,0,0,1,1.16,4.94C451.61,136.66,451.59,137,451.55,137.41Zm-13.06-6.22A6,6,0,0,0,436.6,135h11.82a5.94,5.94,0,0,0-1.9-3.81,6.22,6.22,0,0,0-8,0Z"/><path class="cls-2" d="M456.45,119.72h3.33v25.79h-3.33Z"/><path class="cls-2" d="M466.4,122.92a2,2,0,0,1-.64-1.53,2.09,2.09,0,0,1,.64-1.54,2.2,2.2,0,0,1,1.62-.65,2.29,2.29,0,0,1,1.62.61,2,2,0,0,1,.64,1.51,2.2,2.2,0,0,1-.64,1.59,2.38,2.38,0,0,1-3.24,0Zm0,4.17h3.34v18.42h-3.34Z"/><path class="cls-2" d="M492.56,127.09l-8.07,18.42h-3.4L473,127.09h3.48l6.32,14.77,6.47-14.77Z"/><path class="cls-2" d="M512,137.41H497a5.83,5.83,0,0,0,2.14,3.92,7,7,0,0,0,4.54,1.47,6.85,6.85,0,0,0,5.32-2.22l1.84,2.15a8.05,8.05,0,0,1-3.11,2.23,11.75,11.75,0,0,1-9.33-.44,8.63,8.63,0,0,1-3.5-3.35,9.66,9.66,0,0,1-1.23-4.87,9.78,9.78,0,0,1,1.2-4.83,8.64,8.64,0,0,1,3.3-3.35,9.38,9.38,0,0,1,4.74-1.2,9.22,9.22,0,0,1,4.71,1.2,8.4,8.4,0,0,1,3.23,3.35,10.19,10.19,0,0,1,1.17,4.94A8.53,8.53,0,0,1,512,137.41Zm-13.05-6.22A5.92,5.92,0,0,0,497,135h11.82a5.89,5.89,0,0,0-1.89-3.81,6.22,6.22,0,0,0-8,0Z"/><path class="cls-2" d="M522.62,127.75a9.4,9.4,0,0,1,4.14-.83v3.23a7.64,7.64,0,0,0-.77,0,5.62,5.62,0,0,0-4.26,1.61,6.42,6.42,0,0,0-1.54,4.61v9.17h-3.34V127.09h3.2v3.1A5.68,5.68,0,0,1,522.62,127.75Z"/><path class="cls-2" d="M548.13,127.09l-8.93,20.27a9.26,9.26,0,0,1-2.76,4,6.37,6.37,0,0,1-3.81,1.14A8.1,8.1,0,0,1,530,152a5.41,5.41,0,0,1-2.1-1.27l1.43-2.5a4.65,4.65,0,0,0,3.3,1.35,3.16,3.16,0,0,0,2-.64,5.43,5.43,0,0,0,1.48-2.2l.59-1.29-8.13-18.39h3.47l6.43,14.74,6.36-14.74Z"/></g></g></svg>