<svg width="1112" height="228" xmlns="http://www.w3.org/2000/svg" xmlns:xlink="http://www.w3.org/1999/xlink">
  <defs><path d="M1093.3 227c-10.2.1-18.6-8.1-18.7-18.4v-.3c0-10.5 8.2-19 18.7-19 10.1 0 18.7 8.6 18.7 19 0 10.5-8.6 18.7-18.7 18.7zM964.7 2.5h77v4.1c-13.6 0-22.2 5.4-22.2 25v159.9c0 21.5 8.9 29.8 22.2 29.8v4.1h-77v-4.1c13.6 0 22.2-8.2 22.2-29.8V31.6c0-19.6-8.2-25-22.2-25V2.5zm-47.8 65.2C914 39.2 903.3 8.8 861.2 4.4V0c38.6 2.5 59.9 14.6 59.9 14.6v53.2h-4.2v-.1zM888.5 113c42.5 28.2 49.8 63 33 89.3 0 0-11.1 21.5-50.4 25.3v-4.1c36.8-8.6 39-55.4 5.1-79.2l-52.3-34.2c-30.1-20-59.3-48.5-34.9-86.1 0 0 12.7-19.6 47.5-23.8v4.1c-27.6 8.9-41.8 47.2-.3 74.4l52.3 34.3zm-101.1 36.4c3.2 35.2 16.2 68.7 58.9 74.1v4.1c-43.1-2.5-63-17.4-63-17.4v-60.8h4.1zm-49.1-81.7c-2.9-28.5-13.6-58.9-55.7-63.3V0c38.6 2.5 59.9 14.6 59.9 14.6v53.2h-4.2v-.1zM709.8 113c42.5 28.2 49.8 63 33 89.3 0 0-11.1 21.5-50.4 25.3v-4.1c36.8-8.6 39-55.4 5.1-79.2l-52.3-34.2c-30.1-20-59.3-48.5-34.9-86.1 0 0 12.7-19.6 47.5-23.8v4.1c-27.6 8.9-41.8 47.2-.3 74.4l52.3 34.3zm-101.1 36.4c3.2 35.2 16.2 68.7 58.9 74.1v4.1c-43.1-2.5-63-17.4-63-17.4v-60.8h4.1zM505.2 6.6V2.5h81.7v4.1c-13.9 0-29.5-.6-64.9 69l-2.9-3.8c10.8-22.1 29.1-65.2-13.9-65.2zm-8 183.4c0 25.7 10.8 31.4 24.1 31.4v4.1H444v-4.1c13.3 0 23.8-5.7 23.8-31.4v-55.7C421.2 52 407.9 31 407.9 31 394 6.9 385.1 6.9 375 6.3V2.5h81.1v3.8c-8.9 0-28.8-.6-7.3 35.8l48.5 82V190h-.1zM244.5 34.8v190.7h-49.4v-4.1c13.6 0 17.4-12 17.4-33.6V33.2c0-19.3-6.3-26.6-20-26.6V2.5h75.1v4.1c-13.6 0-23.1 5.4-23.1 28.2zm108.3 121.9v68.7h-83.6V221c37.7-1 75.4-8.9 79.8-64.3h3.8zm-238.5-9.8c-2.2-27.6-24.7-31-40.2-31.7v-4.8c15.8-.6 38-3.8 40.2-31.7h4.1v68.1h-4.1v.1zm36.5-87.4c-2.9-45.9-42.4-51.6-76.6-52.6V2.5H155v57h-4.2zM49.4 2.5v223H0v-4.1c13.3 0 16.8-11.4 16.8-32.9v-152C16.8 16.9 13.9 6.7 0 6.7V2.6h49.4v-.1zM159 159.6v65.9H74.1v-4.4c35.2-1 75.4-6.7 80.8-61.4h4.1v-.1z" id="a"/></defs>
  <g transform="translate(0 .2)" fill="none" fill-rule="evenodd">
    <mask id="b" fill="#fff"><use xlink:href="#a"/></mask><use fill="#3A0E17" fill-rule="nonzero" xlink:href="#a"/><path d="M888.6 304.6c199 0 360.3-127.9 360.3-324.6H528.3c0 196.8 161.3 324.6 360.3 324.6z" fill="#F35627" fill-rule="nonzero" mask="url(#b)"/></g>
</svg>
